<?xml version="1.0" encoding="utf-8"?>
<!-- Generator: Adobe Illustrator 25.0.0, SVG Export Plug-In . SVG Version: 6.00 Build 0)  -->
<svg version="1.1" id="Layer_1" xmlns="http://www.w3.org/2000/svg" xmlns:xlink="http://www.w3.org/1999/xlink" x="0px" y="0px"
	 viewBox="0 0 512 512" style="enable-background:new 0 0 512 512;" xml:space="preserve">
<style type="text/css">
	.st0{fill:#C7C6C5;}
	.st1{fill:#DDDDDD;}
</style>
<g>
	<g>
		<g>
			<path class="st0" d="M482.5,437.35c-0.44-0.11-0.91,0.14-1.06,0.58c-6.37,18.68-30.07,35.64-39.97,42.07
				c-2.59,1.68-25.95,16.49-47.4,18.04c-0.44,0.03-0.79,0.38-0.82,0.81c-0.04,0.44,0.25,0.84,0.67,0.94
				c11.03,2.7,19.97,3.89,27.54,3.89c13.27,0,22.32-3.66,30.99-9.3c14.58-9.47,25.38-22.62,30.71-56.03
				C483.24,437.9,482.95,437.47,482.5,437.35z"/>
			<path class="st0" d="M499.31,295.45c-0.42-0.04-0.79,0.2-0.93,0.59c-16.46,46.47-62.91,95.94-98.26,118.9
				c-15.86,10.3-37.51,20.46-60.99,28.19c-4.04,11.96-8.35,24.27-12.93,36.97c0.83,0.01,1.66,0.03,2.5,0.03
				c31.7,0,63.34-10.12,94.2-30.16c33.49-21.75,56.7-49.12,68.97-81.35c11.82-31.04,10.24-58.69,8.24-72.41
				C500.04,295.81,499.71,295.49,499.31,295.45z"/>
			<path class="st0" d="M510.47,103.92c-0.05-0.43-0.4-0.77-0.84-0.79c-0.42-0.05-0.82,0.27-0.92,0.7
				c-17.86,80.28-71.14,136.99-126.15,179.16c-5.53,29.85-13.64,63.52-24.82,101.46c5.34-3.1,10.72-6.4,16.12-9.91
				C513.8,283.66,516.01,155.01,510.47,103.92z"/>
			<path class="st0" d="M454.27,120.2c37.82-43.42,51.85-77.78,39.53-96.76c-14.34-22.08-62.26-19.9-131.48,6
				c-0.43,0.16-0.67,0.62-0.55,1.07c0.12,0.44,0.54,0.72,1.01,0.65c24.07-4.06,40.1-1.11,46.35,8.52
				c8.59,13.22-1.66,37.67-28.86,68.84c-0.67,0.76-1.36,1.53-2.04,2.3c7.71,17.59,12.76,40.47,13.71,70.05
				C416.01,160.37,437.13,139.87,454.27,120.2z"/>
			<path class="st0" d="M353.97,48.68c-9.1-14.01-42.71-9.67-85.57,8.36c22.3-3.53,56.31-3.93,83.03,17.56
				C356.79,63.78,357.94,54.8,353.97,48.68z"/>
		</g>
	</g>
	<g>
		<path class="st1" d="M277.63,456.16c-8.99,0.73-17.76,0.84-26.1,0.18c-0.4-0.03-0.79,0.22-0.91,0.61
			c-0.13,0.39,0.02,0.81,0.37,1.03c5.04,3.18,12.47,7.34,21.92,11.19c12.55,5.11,28.67,9.69,47.58,10.74
			c1.9,0.11,3.8,0.16,5.71,0.19c4.58-12.69,8.88-25.01,12.93-36.97C319.15,449.71,297.85,454.53,277.63,456.16z"/>
		<path class="st1" d="M335.73,315.8c-5.19,3.37-10.54,6.77-16,10.15c-66.5,41.25-152.22,81.06-248.01,61.65
			c-0.43-0.08-0.85,0.15-1.01,0.56c-0.15,0.41,0.01,0.87,0.39,1.09c25.29,14.72,74.57,37.36,138.16,37.36
			c25.64,0,53.61-3.69,83.27-13.06c20.97-6.63,42.79-16.1,65.22-29.12c11.17-37.94,19.29-71.61,24.82-101.46
			C366.83,295.04,350.96,305.91,335.73,315.8z"/>
		<path class="st1" d="M348.25,140.89c-23.86,21.72-52.69,43.78-84.34,64.33c-47.61,30.92-95.79,54.7-135.66,66.97
			c-39.54,12.16-66.04,11.58-74.63-1.64c-6.25-9.63-2.43-25.47,11.07-45.81c0.25-0.38,0.17-0.89-0.18-1.18
			c-0.36-0.29-0.87-0.26-1.19,0.07C11.5,276.31-9.99,319.2,4.35,341.29c6.54,10.07,20.06,15.12,39.53,15.12
			c17.22,0,39.11-3.95,64.94-11.88c54.7-16.78,120.76-49.36,185.99-91.72c16.88-10.96,33.18-22.24,48.72-33.69
			c17.14-12.62,33.35-25.44,48.41-38.26c-0.95-29.58-6-52.45-13.71-70.05C369.49,120.64,359.41,130.73,348.25,140.89z"/>
		<g>
			<path class="st1" d="M268.4,57.04c-0.23,0.1-0.45,0.19-0.68,0.28c-22.83,9.67-48.24,23.2-73.95,39.89
				c-35.88,23.29-67.04,49.2-87.73,72.94c-20.92,24.01-28.64,43.07-21.76,53.67c3.66,5.64,11.21,8.47,22.07,8.47
				c9.52,0,21.58-2.16,35.79-6.54c30.11-9.22,66.46-27.15,102.34-50.44c41.16-26.74,74.57-56.08,93.84-80.6
				c5.64-7.18,10.05-13.94,13.11-20.11C324.7,53.11,290.69,53.51,268.4,57.04z M221.26,139.55c-49.58,32.2-97.2,50.57-104,40.11
				c-3.18-4.89,3.27-16.04,17.7-30.6c14.92-15.05,36.67-32.13,61.25-48.09c40.13-26.06,78.97-43.06,95.93-43.06
				c4,0,6.78,0.95,8.08,2.94C307,71.3,270.85,107.35,221.26,139.55z"/>
		</g>
	</g>
</g>
</svg>
